# xmcd
#
# Track frame offsets: 
#        150
#        20946
#        39652
#        55214
#        74786
#        90446
#
# Disc length: 1487 seconds
#
# Revision: 0
# Processed by: cddbd v1.5.2PL0 Copyright (c) Steve Scherf et al.
# Submitted via: ExactAudioCopy v0.99pb5
#
DISCID=5405cd06
DTITLE=Hardboiledeggz - Lunar
DYEAR=2006
DGENRE=Rock
TTITLE0=Kronos Smiles
TTITLE1=Lunar
TTITLE2=Equinox
TTITLE3=Dreams In Stereo
TTITLE4=Waiting
TTITLE5=Grace
EXTD=
EXTT0=
EXTT1=
EXTT2=
EXTT3=
EXTT4=
EXTT5=
PLAYORDER=
